?xml version="1.0" encoding="utf-8" standalone="no"?>
<!DOCTYPE svg PUBLIC "-//W3C//DTD SVG 1.1//EN"
  "http://www.w3.org/Graphics/SVG/1.1/DTD/svg11.dtd">
<svg xmlns:xlink="http://www.w3.org/1999/xlink" width="720pt" height="432pt" viewBox="0 0 720 432" xmlns="http://www.w3.org/2000/svg" version="1.1">
 <metadata>
  <rdf:RDF xmlns:dc="http://purl.org/dc/elements/1.1/" xmlns:cc="http://creativecommons.org/ns#" xmlns:rdf="http://www.w3.org/1999/02/22-rdf-syntax-ns#">
   <cc:Work>
    <dc:type rdf:resource="http://purl.org/dc/dcmitype/StillImage"/>
    <dc:date>2025-03-04T09:41:05.021555</dc:date>
    <dc:format>image/svg+xml</dc:format>
    <dc:creator>
     <cc:Agent>
      <dc:title>Matplotlib v3.7.5, https://matplotlib.org/</dc:title>
     </cc:Agent>
    </dc:creator>
   </cc:Work>
  </rdf:RDF>
 </metadata>
 <defs>
  <style type="text/css">*{stroke-linejoin: round; stroke-linecap: butt}</style>
 </defs>
 <g id="figure_1">
  <g id="patch_1">
   <path d="M 0 432 
L 720 432 
L 720 0 
L 0 0 
z
" style="fill: #ffffff"/>
  </g>
  <g id="axes_1">
   <g id="patch_2">
    <path d="M 90 384.48 
L 648 384.48 
L 648 51.84 
L 90 51.84 
z
" style="fill: #ffffff"/>
   </g>
   <g id="patch_3">
    <path d="M 115.363636 384.48 
L 119.38961 384.48 
L 119.38961 367.30046 
L 115.363636 367.30046 
z
" clip-path="url(#pef12bb9a59)" style="fill: #1f77b4"/>
   </g>
   <g id="patch_4">
    <path d="M 120.396104 384.48 
L 124.422078 384.48 
L 124.422078 379.042218 
L 120.396104 379.042218 
z
" clip-path="url(#pef12bb9a59)" style="fill: #1f77b4"/>
   </g>
   <g id="patch_5">
    <path d="M 125.428571 384.48 
L 129.454545 384.48 
L 129.454545 370.183403 
L 125.428571 370.183403 
z
" clip-path="url(#pef12bb9a59)" style="fill: #1f77b4"/>
   </g>
   <g id="patch_6">
    <path d="M 130.461039 384.48 
L 134.487013 384.48 
L 134.487013 343.37947 
L 130.461039 343.37947 
z
" clip-path="url(#pef12bb9a59)" style="fill: #1f77b4"/>
   </g>
   <g id="patch_7">
    <path d="M 135.493506 384.48 
L 139.519481 384.48 
L 139.519481 363.301962 
L 135.493506 363.301962 
z
" clip-path="url(#pef12bb9a59)" style="fill: #1f77b4"/>
   </g>
   <g id="patch_8">
    <path d="M 140.525974 384.48 
L 144.551948 384.48 
L 144.551948 373.328829 
L 140.525974 373.328829 
z
" clip-path="url(#pef12bb9a59)" style="fill: #1f77b4"/>
   </g>
   <g id="patch_9">
    <path d="M 145.558442 384.48 
L 149.584416 384.48 
L 149.584416 377.729801 
L 145.558442 377.729801 
z
" clip-path="url(#pef12bb9a59)" style="fill: #1f77b4"/>
   </g>
   <g id="patch_10">
    <path d="M 150.590909 384.48 
L 154.616883 384.48 
L 154.616883 384.48 
L 150.590909 384.48 
z
" clip-path="url(#pef12bb9a59)" style="fill: #1f77b4"/>
   </g>
   <g id="patch_11">
    <path d="M 155.623377 384.48 
L 159.649351 384.48 
L 159.649351 369.531569 
L 155.623377 369.531569 
z
" clip-path="url(#pef12bb9a59)" style="fill: #1f77b4"/>
   </g>
   <g id="patch_12">
    <path d="M 160.655844 384.48 
L 164.681818 384.48 
L 164.681818 374.055033 
L 160.655844 374.055033 
z
" clip-path="url(#pef12bb9a59)" style="fill: #1f77b4"/>
   </g>
   <g id="patch_13">
    <path d="M 165.688312 384.48 
L 169.714286 384.48 
L 169.714286 371.0146 
L 165.688312 371.0146 
z
" clip-path="url(#pef12bb9a59)" style="fill: #1f77b4"/>
   </g>
   <g id="patch_14">
    <path d="M 170.720779 384.48 
L 174.746753 384.48 
L 174.746753 360.283403 
L 170.720779 360.283403 
z
" clip-path="url(#pef12bb9a59)" style="fill: #1f77b4"/>
   </g>
   <g id="patch_15">
    <path d="M 175.753247 384.48 
L 179.779221 384.48 
L 179.779221 384.48 
L 175.753247 384.48 
z
" clip-path="url(#pef12bb9a59)" style="fill: #1f77b4"/>
   </g>
   <g id="patch_16">
    <path d="M 180.785714 384.48 
L 184.811688 384.48 
L 184.811688 358.730376 
L 180.785714 358.730376 
z
" clip-path="url(#pef12bb9a59)" style="fill: #1f77b4"/>
   </g>
   <g id="patch_17">
    <path d="M 185.818182 384.48 
L 189.844156 384.48 
L 189.844156 376.946726 
L 185.818182 376.946726 
z
" clip-path="url(#pef12bb9a59)" style="fill: #1f77b4"/>
   </g>
   <g id="patch_18">
    <path d="M 190.850649 384.48 
L 194.876623 384.48 
L 194.876623 382.922598 
L 190.850649 382.922598 
z
" clip-path="url(#pef12bb9a59)" style="fill: #1f77b4"/>
   </g>
   <g id="patch_19">
    <path d="M 195.883117 384.48 
L 199.909091 384.48 
L 199.909091 366.447388 
L 195.883117 366.447388 
z
" clip-path="url(#pef12bb9a59)" style="fill: #1f77b4"/>
   </g>
   <g id="patch_20">
    <path d="M 200.915584 384.48 
L 204.941558 384.48 
L 204.941558 380.144649 
L 200.915584 380.144649 
z
" clip-path="url(#pef12bb9a59)" style="fill: #1f77b4"/>
   </g>
   <g id="patch_21">
    <path d="M 205.948052 384.48 
L 209.974026 384.48 
L 209.974026 380.687114 
L 205.948052 380.687114 
z
" clip-path="url(#pef12bb9a59)" style="fill: #1f77b4"/>
   </g>
   <g id="patch_22">
    <path d="M 210.980519 384.48 
L 215.006494 384.48 
L 215.006494 383.701299 
L 210.980519 383.701299 
z
" clip-path="url(#pef12bb9a59)" style="fill: #1f77b4"/>
   </g>
   <g id="patch_23">
    <path d="M 216.012987 384.48 
L 220.038961 384.48 
L 220.038961 381.601432 
L 216.012987 381.601432 
z
" clip-path="url(#pef12bb9a59)" style="fill: #1f77b4"/>
   </g>
   <g id="patch_24">
    <path d="M 221.045455 384.48 
L 225.071429 384.48 
L 225.071429 384.48 
L 221.045455 384.48 
z
" clip-path="url(#pef12bb9a59)" style="fill: #1f77b4"/>
   </g>
   <g id="patch_25">
    <path d="M 226.077922 384.48 
L 230.103896 384.48 
L 230.103896 379.365948 
L 226.077922 379.365948 
z
" clip-path="url(#pef12bb9a59)" style="fill: #1f77b4"/>
   </g>
   <g id="patch_26">
    <path d="M 231.11039 384.48 
L 235.136364 384.48 
L 235.136364 368.905983 
L 231.11039 368.905983 
z
" clip-path="url(#pef12bb9a59)" style="fill: #1f77b4"/>
   </g>
   <g id="patch_27">
    <path d="M 236.142857 384.48 
L 240.168831 384.48 
L 240.168831 368.905983 
L 236.142857 368.905983 
z
" clip-path="url(#pef12bb9a59)" style="fill: #1f77b4"/>
   </g>
   <g id="patch_28">
    <path d="M 241.175325 384.48 
L 245.201299 384.48 
L 245.201299 383.115086 
L 241.175325 383.115086 
z
" clip-path="url(#pef12bb9a59)" style="fill: #1f77b4"/>
   </g>
   <g id="patch_29">
    <path d="M 246.207792 384.48 
L 250.233766 384.48 
L 250.233766 382.918224 
L 246.207792 382.918224 
z
" clip-path="url(#pef12bb9a59)" style="fill: #1f77b4"/>
   </g>
   <g id="patch_30">
    <path d="M 251.24026 384.48 
L 255.266234 384.48 
L 255.266234 378.600371 
L 251.24026 378.600371 
z
" clip-path="url(#pef12bb9a59)" style="fill: #1f77b4"/>
   </g>
   <g id="patch_31">
    <path d="M 256.272727 384.48 
L 260.298701 384.48 
L 260.298701 364.999355 
L 256.272727 364.999355 
z
" clip-path="url(#pef12bb9a59)" style="fill: #1f77b4"/>
   </g>
   <g id="patch_32">
    <path d="M 261.305195 384.48 
L 265.331169 384.48 
L 265.331169 366.849863 
L 261.305195 366.849863 
z
" clip-path="url(#pef12bb9a59)" style="fill: #1f77b4"/>
   </g>
   <g id="patch_33">
    <path d="M 266.337662 384.48 
L 270.363636 384.48 
L 270.363636 382.139523 
L 266.337662 382.139523 
z
" clip-path="url(#pef12bb9a59)" style="fill: #1f77b4"/>
   </g>
   <g id="patch_34">
    <path d="M 271.37013 384.48 
L 275.396104 384.48 
L 275.396104 368.901608 
L 271.37013 368.901608 
z
" clip-path="url(#pef12bb9a59)" style="fill: #1f77b4"/>
   </g>
   <g id="patch_35">
    <path d="M 276.402597 384.48 
L 280.428571 384.48 
L 280.428571 377.756049 
L 276.402597 377.756049 
z
" clip-path="url(#pef12bb9a59)" style="fill: #1f77b4"/>
   </g>
   <g id="patch_36">
    <path d="M 281.435065 384.48 
L 285.461039 384.48 
L 285.461039 384.475625 
L 281.435065 384.475625 
z
" clip-path="url(#pef12bb9a59)" style="fill: #1f77b4"/>
   </g>
   <g id="patch_37">
    <path d="M 286.467532 384.48 
L 290.493506 384.48 
L 290.493506 378.604746 
L 286.467532 378.604746 
z
" clip-path="url(#pef12bb9a59)" style="fill: #1f77b4"/>
   </g>
   <g id="patch_38">
    <path d="M 291.5 384.48 
L 295.525974 384.48 
L 295.525974 368.901608 
L 291.5 368.901608 
z
" clip-path="url(#pef12bb9a59)" style="fill: #1f77b4"/>
   </g>
   <g id="patch_39">
    <path d="M 296.532468 384.48 
L 300.558442 384.48 
L 300.558442 368.901608 
L 296.532468 368.901608 
z
" clip-path="url(#pef12bb9a59)" style="fill: #1f77b4"/>
   </g>
   <g id="patch_40">
    <path d="M 301.564935 384.48 
L 305.590909 384.48 
L 305.590909 383.110711 
L 301.564935 383.110711 
z
" clip-path="url(#pef12bb9a59)" style="fill: #1f77b4"/>
   </g>
   <g id="patch_41">
    <path d="M 306.597403 384.48 
L 310.623377 384.48 
L 310.623377 382.922598 
L 306.597403 382.922598 
z
" clip-path="url(#pef12bb9a59)" style="fill: #1f77b4"/>
   </g>
   <g id="patch_42">
    <path d="M 311.62987 384.48 
L 315.655844 384.48 
L 315.655844 378.595996 
L 311.62987 378.595996 
z
" clip-path="url(#pef12bb9a59)" style="fill: #1f77b4"/>
   </g>
   <g id="patch_43">
    <path d="M 316.662338 384.48 
L 320.688312 384.48 
L 320.688312 364.986231 
L 316.662338 364.986231 
z
" clip-path="url(#pef12bb9a59)" style="fill: #1f77b4"/>
   </g>
   <g id="patch_44">
    <path d="M 321.694805 384.48 
L 325.720779 384.48 
L 325.720779 366.845488 
L 321.694805 366.845488 
z
" clip-path="url(#pef12bb9a59)" style="fill: #1f77b4"/>
   </g>
   <g id="patch_45">
    <path d="M 326.727273 384.48 
L 330.753247 384.48 
L 330.753247 382.143897 
L 326.727273 382.143897 
z
" clip-path="url(#pef12bb9a59)" style="fill: #1f77b4"/>
   </g>
   <g id="patch_46">
    <path d="M 331.75974 384.48 
L 335.785714 384.48 
L 335.785714 368.905983 
L 331.75974 368.905983 
z
" clip-path="url(#pef12bb9a59)" style="fill: #1f77b4"/>
   </g>
   <g id="patch_47">
    <path d="M 336.792208 384.48 
L 340.818182 384.48 
L 340.818182 377.756049 
L 336.792208 377.756049 
z
" clip-path="url(#pef12bb9a59)" style="fill: #1f77b4"/>
   </g>
   <g id="patch_48">
    <path d="M 341.824675 384.48 
L 345.850649 384.48 
L 345.850649 384.48 
L 341.824675 384.48 
z
" clip-path="url(#pef12bb9a59)" style="fill: #1f77b4"/>
   </g>
   <g id="patch_49">
    <path d="M 346.857143 384.48 
L 350.883117 384.48 
L 350.883117 378.595996 
L 346.857143 378.595996 
z
" clip-path="url(#pef12bb9a59)" style="fill: #1f77b4"/>
   </g>
   <g id="patch_50">
    <path d="M 351.88961 384.48 
L 355.915584 384.48 
L 355.915584 368.901608 
L 351.88961 368.901608 
z
" clip-path="url(#pef12bb9a59)" style="fill: #1f77b4"/>
   </g>
   <g id="patch_51">
    <path d="M 356.922078 384.48 
L 360.948052 384.48 
L 360.948052 368.905983 
L 356.922078 368.905983 
z
" clip-path="url(#pef12bb9a59)" style="fill: #1f77b4"/>
   </g>
   <g id="patch_52">
    <path d="M 361.954545 384.48 
L 365.980519 384.48 
L 365.980519 185.740672 
L 361.954545 185.740672 
z
" clip-path="url(#pef12bb9a59)" style="fill: #1f77b4"/>
   </g>
   <g id="patch_53">
    <path d="M 366.987013 384.48 
L 371.012987 384.48 
L 371.012987 384.48 
L 366.987013 384.48 
z
" clip-path="url(#pef12bb9a59)" style="fill: #1f77b4"/>
   </g>
   <g id="patch_54">
    <path d="M 372.019481 384.48 
L 376.045455 384.48 
L 376.045455 149.373593 
L 372.019481 149.373593 
z
" clip-path="url(#pef12bb9a59)" style="fill: #1f77b4"/>
   </g>
   <g id="patch_55">
    <path d="M 377.051948 384.48 
L 381.077922 384.48 
L 381.077922 374.387512 
L 377.051948 374.387512 
z
" clip-path="url(#pef12bb9a59)" style="fill: #1f77b4"/>
   </g>
   <g id="patch_56">
    <path d="M 382.084416 384.48 
L 386.11039 384.48 
L 386.11039 369.833425 
L 382.084416 369.833425 
z
" clip-path="url(#pef12bb9a59)" style="fill: #1f77b4"/>
   </g>
   <g id="patch_57">
    <path d="M 387.116883 384.48 
L 391.142857 384.48 
L 391.142857 334.450658 
L 387.116883 334.450658 
z
" clip-path="url(#pef12bb9a59)" style="fill: #1f77b4"/>
   </g>
   <g id="patch_58">
    <path d="M 392.149351 384.48 
L 396.175325 384.48 
L 396.175325 238.644207 
L 392.149351 238.644207 
z
" clip-path="url(#pef12bb9a59)" style="fill: #1f77b4"/>
   </g>
   <g id="patch_59">
    <path d="M 397.181818 384.48 
L 401.207792 384.48 
L 401.207792 181.676553 
L 397.181818 181.676553 
z
" clip-path="url(#pef12bb9a59)" style="fill: #1f77b4"/>
   </g>
   <g id="patch_60">
    <path d="M 402.214286 384.48 
L 406.24026 384.48 
L 406.24026 334.450658 
L 402.214286 334.450658 
z
" clip-path="url(#pef12bb9a59)" style="fill: #1f77b4"/>
   </g>
   <g id="patch_61">
    <path d="M 407.246753 384.48 
L 411.272727 384.48 
L 411.272727 383.701299 
L 407.246753 383.701299 
z
" clip-path="url(#pef12bb9a59)" style="fill: #1f77b4"/>
   </g>
   <g id="patch_62">
    <path d="M 412.279221 384.48 
L 416.305195 384.48 
L 416.305195 302.313937 
L 412.279221 302.313937 
z
" clip-path="url(#pef12bb9a59)" style="fill: #1f77b4"/>
   </g>
   <g id="patch_63">
    <path d="M 417.311688 384.48 
L 421.337662 384.48 
L 421.337662 329.704083 
L 417.311688 329.704083 
z
" clip-path="url(#pef12bb9a59)" style="fill: #1f77b4"/>
   </g>
   <g id="patch_64">
    <path d="M 422.344156 384.48 
L 426.37013 384.48 
L 426.37013 367.422952 
L 422.344156 367.422952 
z
" clip-path="url(#pef12bb9a59)" style="fill: #1f77b4"/>
   </g>
   <g id="patch_65">
    <path d="M 427.376623 384.48 
L 431.402597 384.48 
L 431.402597 67.68 
L 427.376623 67.68 
z
" clip-path="url(#pef12bb9a59)" style="fill: #1f77b4"/>
   </g>
   <g id="patch_66">
    <path d="M 432.409091 384.48 
L 436.435065 384.48 
L 436.435065 384.475625 
L 432.409091 384.475625 
z
" clip-path="url(#pef12bb9a59)" style="fill: #1f77b4"/>
   </g>
   <g id="patch_67">
    <path d="M 437.441558 384.48 
L 441.467532 384.48 
L 441.467532 268.934795 
L 437.441558 268.934795 
z
" clip-path="url(#pef12bb9a59)" style="fill: #1f77b4"/>
   </g>
   <g id="patch_68">
    <path d="M 442.474026 384.48 
L 446.5 384.48 
L 446.5 339.660954 
L 442.474026 339.660954 
z
" clip-path="url(#pef12bb9a59)" style="fill: #1f77b4"/>
   </g>
   <g id="patch_69">
    <path d="M 447.506494 384.48 
L 451.532468 384.48 
L 451.532468 381.728299 
L 447.506494 381.728299 
z
" clip-path="url(#pef12bb9a59)" style="fill: #1f77b4"/>
   </g>
   <g id="patch_70">
    <path d="M 452.538961 384.48 
L 456.564935 384.48 
L 456.564935 379.72905 
L 452.538961 379.72905 
z
" clip-path="url(#pef12bb9a59)" style="fill: #1f77b4"/>
   </g>
   <g id="patch_71">
    <path d="M 457.571429 384.48 
L 461.597403 384.48 
L 461.597403 321.015882 
L 457.571429 321.015882 
z
" clip-path="url(#pef12bb9a59)" style="fill: #1f77b4"/>
   </g>
   <g id="patch_72">
    <path d="M 462.603896 384.48 
L 466.62987 384.48 
L 466.62987 316.706779 
L 462.603896 316.706779 
z
" clip-path="url(#pef12bb9a59)" style="fill: #1f77b4"/>
   </g>
   <g id="patch_73">
    <path d="M 467.636364 384.48 
L 471.662338 384.48 
L 471.662338 321.129624 
L 467.636364 321.129624 
z
" clip-path="url(#pef12bb9a59)" style="fill: #1f77b4"/>
   </g>
   <g id="patch_74">
    <path d="M 472.668831 384.48 
L 476.694805 384.48 
L 476.694805 380.853354 
L 472.668831 380.853354 
z
" clip-path="url(#pef12bb9a59)" style="fill: #1f77b4"/>
   </g>
   <g id="patch_75">
    <path d="M 477.701299 384.48 
L 481.727273 384.48 
L 481.727273 380.778984 
L 477.701299 380.778984 
z
" clip-path="url(#pef12bb9a59)" style="fill: #1f77b4"/>
   </g>
   <g id="patch_76">
    <path d="M 482.733766 384.48 
L 486.75974 384.48 
L 486.75974 382.454503 
L 482.733766 382.454503 
z
" clip-path="url(#pef12bb9a59)" style="fill: #1f77b4"/>
   </g>
   <g id="patch_77">
    <path d="M 487.766234 384.48 
L 491.792208 384.48 
L 491.792208 377.217958 
L 487.766234 377.217958 
z
" clip-path="url(#pef12bb9a59)" style="fill: #1f77b4"/>
   </g>
   <g id="patch_78">
    <path d="M 492.798701 384.48 
L 496.824675 384.48 
L 496.824675 376.574874 
L 492.798701 376.574874 
z
" clip-path="url(#pef12bb9a59)" style="fill: #1f77b4"/>
   </g>
   <g id="patch_79">
    <path d="M 497.831169 384.48 
L 501.857143 384.48 
L 501.857143 379.57156 
L 497.831169 379.57156 
z
" clip-path="url(#pef12bb9a59)" style="fill: #1f77b4"/>
   </g>
   <g id="patch_80">
    <path d="M 502.863636 384.48 
L 506.88961 384.48 
L 506.88961 383.583182 
L 502.863636 383.583182 
z
" clip-path="url(#pef12bb9a59)" style="fill: #1f77b4"/>
   </g>
   <g id="patch_81">
    <path d="M 507.896104 384.48 
L 511.922078 384.48 
L 511.922078 382.843853 
L 507.896104 382.843853 
z
" clip-path="url(#pef12bb9a59)" style="fill: #1f77b4"/>
   </g>
   <g id="patch_82">
    <path d="M 512.928571 384.48 
L 516.954545 384.48 
L 516.954545 359.509076 
L 512.928571 359.509076 
z
" clip-path="url(#pef12bb9a59)" style="fill: #1f77b4"/>
   </g>
   <g id="patch_83">
    <path d="M 517.961039 384.48 
L 521.987013 384.48 
L 521.987013 383.408193 
L 517.961039 383.408193 
z
" clip-path="url(#pef12bb9a59)" style="fill: #1f77b4"/>
   </g>
   <g id="patch_84">
    <path d="M 522.993506 384.48 
L 527.019481 384.48 
L 527.019481 369.518445 
L 522.993506 369.518445 
z
" clip-path="url(#pef12bb9a59)" style="fill: #1f77b4"/>
   </g>
   <g id="patch_85">
    <path d="M 528.025974 384.48 
L 532.051948 384.48 
L 532.051948 374.173151 
L 528.025974 374.173151 
z
" clip-path="url(#pef12bb9a59)" style="fill: #1f77b4"/>
   </g>
   <g id="patch_86">
    <path d="M 533.058442 384.48 
L 537.084416 384.48 
L 537.084416 379.57156 
L 533.058442 379.57156 
z
" clip-path="url(#pef12bb9a59)" style="fill: #1f77b4"/>
   </g>
   <g id="patch_87">
    <path d="M 538.090909 384.48 
L 542.116883 384.48 
L 542.116883 384.48 
L 538.090909 384.48 
z
" clip-path="url(#pef12bb9a59)" style="fill: #1f77b4"/>
   </g>
   <g id="patch_88">
    <path d="M 543.123377 384.48 
L 547.149351 384.48 
L 547.149351 372.165152 
L 543.123377 372.165152 
z
" clip-path="url(#pef12bb9a59)" style="fill: #1f77b4"/>
   </g>
   <g id="patch_89">
    <path d="M 548.155844 384.48 
L 552.181818 384.48 
L 552.181818 379.352824 
L 548.155844 379.352824 
z
" clip-path="url(#pef12bb9a59)" style="fill: #1f77b4"/>
   </g>
   <g id="patch_90">
    <path d="M 553.188312 384.48 
L 557.214286 384.48 
L 557.214286 383.071339 
L 553.188312 383.071339 
z
" clip-path="url(#pef12bb9a59)" style="fill: #1f77b4"/>
   </g>
   <g id="patch_91">
    <path d="M 558.220779 384.48 
L 562.246753 384.48 
L 562.246753 381.190208 
L 558.220779 381.190208 
z
" clip-path="url(#pef12bb9a59)" style="fill: #1f77b4"/>
   </g>
   <g id="patch_92">
    <path d="M 563.253247 384.48 
L 567.279221 384.48 
L 567.279221 353.546328 
L 563.253247 353.546328 
z
" clip-path="url(#pef12bb9a59)" style="fill: #1f77b4"/>
   </g>
   <g id="patch_93">
    <path d="M 568.285714 384.48 
L 572.311688 384.48 
L 572.311688 380.481502 
L 568.285714 380.481502 
z
" clip-path="url(#pef12bb9a59)" style="fill: #1f77b4"/>
   </g>
   <g id="patch_94">
    <path d="M 573.318182 384.48 
L 577.344156 384.48 
L 577.344156 353.388838 
L 573.318182 353.388838 
z
" clip-path="url(#pef12bb9a59)" style="fill: #1f77b4"/>
   </g>
   <g id="patch_95">
    <path d="M 578.350649 384.48 
L 582.376623 384.48 
L 582.376623 356.949863 
L 578.350649 356.949863 
z
" clip-path="url(#pef12bb9a59)" style="fill: #1f77b4"/>
   </g>
   <g id="patch_96">
    <path d="M 583.383117 384.48 
L 587.409091 384.48 
L 587.409091 364.246902 
L 583.383117 364.246902 
z
" clip-path="url(#pef12bb9a59)" style="fill: #1f77b4"/>
   </g>
   <g id="patch_97">
    <path d="M 588.415584 384.48 
L 592.441558 384.48 
L 592.441558 370.791489 
L 588.415584 370.791489 
z
" clip-path="url(#pef12bb9a59)" style="fill: #1f77b4"/>
   </g>
   <g id="patch_98">
    <path d="M 593.448052 384.48 
L 597.474026 384.48 
L 597.474026 376.657994 
L 593.448052 376.657994 
z
" clip-path="url(#pef12bb9a59)" style="fill: #1f77b4"/>
   </g>
   <g id="patch_99">
    <path d="M 598.480519 384.48 
L 602.506494 384.48 
L 602.506494 354.985612 
L 598.480519 354.985612 
z
" clip-path="url(#pef12bb9a59)" style="fill: #1f77b4"/>
   </g>
   <g id="patch_100">
    <path d="M 603.512987 384.48 
L 607.538961 384.48 
L 607.538961 347.955431 
L 603.512987 347.955431 
z
" clip-path="url(#pef12bb9a59)" style="fill: #1f77b4"/>
   </g>
   <g id="patch_101">
    <path d="M 608.545455 384.48 
L 612.571429 384.48 
L 612.571429 352.312656 
L 608.545455 352.312656 
z
" clip-path="url(#pef12bb9a59)" style="fill: #1f77b4"/>
   </g>
   <g id="patch_102">
    <path d="M 613.577922 384.48 
L 617.603896 384.48 
L 617.603896 360.125913 
L 613.577922 360.125913 
z
" clip-path="url(#pef12bb9a59)" style="fill: #1f77b4"/>
   </g>
   <g id="patch_103">
    <path d="M 618.61039 384.48 
L 622.636364 384.48 
L 622.636364 384.48 
L 618.61039 384.48 
z
" clip-path="url(#pef12bb9a59)" style="fill: #1f77b4"/>
   </g>
   <g id="matplotlib.axis_1">
    <g id="xtick_1">
     <g id="line2d_1">
      <path d="M 117.376623 384.48 
L 117.376623 51.84 
" clip-path="url(#pef12bb9a59)" style="fill: none; stroke: #b0b0b0; stroke-width: 0.8; stroke-linecap: square"/>
     </g>
     <g id="line2d_2">
      <defs>
       <path id="m18462dbb92" d="M 0 0 
L 0 3.5 
" style="stroke: #000000; stroke-width: 0.8"/>
      </defs>
      <g>
       <use xlink:href="#m18462dbb92" x="117.376623" y="384.48" style="stroke: #000000; stroke-width: 0.8"/>
      </g>
     </g>
     <g id="text_1">
      <!-- 0 -->
      <g transform="translate(114.195373 399.078438) scale(0.1 -0.1)">
       <defs>
        <path id="DejaVuSans-30" d="M 2034 4250 
Q 1547 4250 1301 3770 
Q 1056 3291 1056 2328 
Q 1056 1369 1301 889 
Q 1547 409 2034 409 
Q 2525 409 2770 889 
Q 3016 1369 3016 2328 
Q 3016 3291 2770 3770 
Q 2525 4250 2034 4250 
z
M 2034 4750 
Q 2819 4750 3233 4129 
Q 3647 3509 3647 2328 
Q 3647 1150 3233 529 
Q 2819 -91 2034 -91 
Q 1250 -91 836 529 
Q 422 1150 422 2328 
Q 422 3509 836 4129 
Q 1250 4750 2034 4750 
z
" transform="scale(0.015625)"/>
       </defs>
       <use xlink:href="#DejaVuSans-30"/>
      </g>
     </g>
    </g>
    <g id="xtick_2">
     <g id="line2d_3">
      <path d="M 218.025974 384.48 
L 218.025974 51.84 
" clip-path="url(#pef12bb9a59)" style="fill: none; stroke: #b0b0b0; stroke-width: 0.8; stroke-linecap: square"/>
     </g>
     <g id="line2d_4">
      <g>
       <use xlink:href="#m18462dbb92" x="218.025974" y="384.48" style="stroke: #000000; stroke-width: 0.8"/>
      </g>
     </g>
     <g id="text_2">
      <!-- 20 -->
      <g transform="translate(211.663474 399.078438) scale(0.1 -0.1)">
       <defs>
        <path id="DejaVuSans-32" d="M 1228 531 
L 3431 531 
L 3431 0 
L 469 0 
L 469 531 
Q 828 903 1448 1529 
Q 2069 2156 2228 2338 
Q 2531 2678 2651 2914 
Q 2772 3150 2772 3378 
Q 2772 3750 2511 3984 
Q 2250 4219 1831 4219 
Q 1534 4219 1204 4116 
Q 875 4013 500 3803 
L 500 4441 
Q 881 4594 1212 4672 
Q 1544 4750 1819 4750 
Q 2544 4750 2975 4387 
Q 3406 4025 3406 3419 
Q 3406 3131 3298 2873 
Q 3191 2616 2906 2266 
Q 2828 2175 2409 1742 
Q 1991 1309 1228 531 
z
" transform="scale(0.015625)"/>
       </defs>
       <use xlink:href="#DejaVuSans-32"/>
       <use xlink:href="#DejaVuSans-30" x="63.623047"/>
      </g>
     </g>
    </g>
    <g id="xtick_3">
     <g id="line2d_5">
      <path d="M 318.675325 384.48 
L 318.675325 51.84 
" clip-path="url(#pef12bb9a59)" style="fill: none; stroke: #b0b0b0; stroke-width: 0.8; stroke-linecap: square"/>
     </g>
     <g id="line2d_6">
      <g>
       <use xlink:href="#m18462dbb92" x="318.675325" y="384.48" style="stroke: #000000; stroke-width: 0.8"/>
      </g>
     </g>
     <g id="text_3">
      <!-- 40 -->
      <g transform="translate(312.312825 399.078438) scale(0.1 -0.1)">
       <defs>
        <path id="DejaVuSans-34" d="M 2419 4116 
L 825 1625 
L 2419 1625 
L 2419 4116 
z
M 2253 4666 
L 3047 4666 
L 3047 1625 
L 3713 1625 
L 3713 1100 
L 3047 1100 
L 3047 0 
L 2419 0 
L 2419 1100 
L 313 1100 
L 313 1709 
L 2253 4666 
z
" transform="scale(0.015625)"/>
       </defs>
       <use xlink:href="#DejaVuSans-34"/>
       <use xlink:href="#DejaVuSans-30" x="63.623047"/>
      </g>
     </g>
    </g>
    <g id="xtick_4">
     <g id="line2d_7">
      <path d="M 419.324675 384.48 
L 419.324675 51.84 
" clip-path="url(#pef12bb9a59)" style="fill: none; stroke: #b0b0b0; stroke-width: 0.8; stroke-linecap: square"/>
     </g>
     <g id="line2d_8">
      <g>
       <use xlink:href="#m18462dbb92" x="419.324675" y="384.48" style="stroke: #000000; stroke-width: 0.8"/>
      </g>
     </g>
     <g id="text_4">
      <!-- 60 -->
      <g transform="translate(412.962175 399.078438) scale(0.1 -0.1)">
       <defs>
        <path id="DejaVuSans-36" d="M 2113 2584 
Q 1688 2584 1439 2293 
Q 1191 2003 1191 1497 
Q 1191 994 1439 701 
Q 1688 409 2113 409 
Q 2538 409 2786 701 
Q 3034 994 3034 1497 
Q 3034 2003 2786 2293 
Q 2538 2584 2113 2584 
z
M 3366 4563 
L 3366 3988 
Q 3128 4100 2886 4159 
Q 2644 4219 2406 4219 
Q 1781 4219 1451 3797 
Q 1122 3375 1075 2522 
Q 1259 2794 1537 2939 
Q 1816 3084 2150 3084 
Q 2853 3084 3261 2657 
Q 3669 2231 3669 1497 
Q 3669 778 3244 343 
Q 2819 -91 2113 -91 
Q 1303 -91 875 529 
Q 447 1150 447 2328 
Q 447 3434 972 4092 
Q 1497 4750 2381 4750 
Q 2619 4750 2861 4703 
Q 3103 4656 3366 4563 
z
" transform="scale(0.015625)"/>
       </defs>
       <use xlink:href="#DejaVuSans-36"/>
       <use xlink:href="#DejaVuSans-30" x="63.623047"/>
      </g>
     </g>
    </g>
    <g id="xtick_5">
     <g id="line2d_9">
      <path d="M 519.974026 384.48 
L 519.974026 51.84 
" clip-path="url(#pef12bb9a59)" style="fill: none; stroke: #b0b0b0; stroke-width: 0.8; stroke-linecap: square"/>
     </g>
     <g id="line2d_10">
      <g>
       <use xlink:href="#m18462dbb92" x="519.974026" y="384.48" style="stroke: #000000; stroke-width: 0.8"/>
      </g>
     </g>
     <g id="text_5">
      <!-- 80 -->
      <g transform="translate(513.611526 399.078438) scale(0.1 -0.1)">
       <defs>
        <path id="DejaVuSans-38" d="M 2034 2216 
Q 1584 2216 1326 1975 
Q 1069 1734 1069 1313 
Q 1069 891 1326 650 
Q 1584 409 2034 409 
Q 2484 409 2743 651 
Q 3003 894 3003 1313 
Q 3003 1734 2745 1975 
Q 2488 2216 2034 2216 
z
M 1403 2484 
Q 997 2584 770 2862 
Q 544 3141 544 3541 
Q 544 4100 942 4425 
Q 1341 4750 2034 4750 
Q 2731 4750 3128 4425 
Q 3525 4100 3525 3541 
Q 3525 3141 3298 2862 
Q 3072 2584 2669 2484 
Q 3125 2378 3379 2068 
Q 3634 1759 3634 1313 
Q 3634 634 3220 271 
Q 2806 -91 2034 -91 
Q 1263 -91 848 271 
Q 434 634 434 1313 
Q 434 1759 690 2068 
Q 947 2378 1403 2484 
z
M 1172 3481 
Q 1172 3119 1398 2916 
Q 1625 2713 2034 2713 
Q 2441 2713 2670 2916 
Q 2900 3119 2900 3481 
Q 2900 3844 2670 4047 
Q 2441 4250 2034 4250 
Q 1625 4250 1398 4047 
Q 1172 3844 1172 3481 
z
" transform="scale(0.015625)"/>
       </defs>
       <use xlink:href="#DejaVuSans-38"/>
       <use xlink:href="#DejaVuSans-30" x="63.623047"/>
      </g>
     </g>
    </g>
    <g id="xtick_6">
     <g id="line2d_11">
      <path d="M 620.623377 384.48 
L 620.623377 51.84 
" clip-path="url(#pef12bb9a59)" style="fill: none; stroke: #b0b0b0; stroke-width: 0.8; stroke-linecap: square"/>
     </g>
     <g id="line2d_12">
      <g>
       <use xlink:href="#m18462dbb92" x="620.623377" y="384.48" style="stroke: #000000; stroke-width: 0.8"/>
      </g>
     </g>
     <g id="text_6">
      <!-- 100 -->
      <g transform="translate(611.079627 399.078438) scale(0.1 -0.1)">
       <defs>
        <path id="DejaVuSans-31" d="M 794 531 
L 1825 531 
L 1825 4091 
L 703 3866 
L 703 4441 
L 1819 4666 
L 2450 4666 
L 2450 531 
L 3481 531 
L 3481 0 
L 794 0 
L 794 531 
z
" transform="scale(0.015625)"/>
       </defs>
       <use xlink:href="#DejaVuSans-31"/>
       <use xlink:href="#DejaVuSans-30" x="63.623047"/>
       <use xlink:href="#DejaVuSans-30" x="127.246094"/>
      </g>
     </g>
    </g>
    <g id="text_7">
     <!-- Index -->
     <g transform="translate(355.233594 412.756563) scale(0.1 -0.1)">
      <defs>
       <path id="DejaVuSans-49" d="M 628 4666 
L 1259 4666 
L 1259 0 
L 628 0 
L 628 4666 
z
" transform="scale(0.015625)"/>
       <path id="DejaVuSans-6e" d="M 3513 2113 
L 3513 0 
L 2938 0 
L 2938 2094 
Q 2938 2591 2744 2837 
Q 2550 3084 2163 3084 
Q 1697 3084 1428 2787 
Q 1159 2491 1159 1978 
L 1159 0 
L 581 0 
L 581 3500 
L 1159 3500 
L 1159 2956 
Q 1366 3272 1645 3428 
Q 1925 3584 2291 3584 
Q 2894 3584 3203 3211 
Q 3513 2838 3513 2113 
z
" transform="scale(0.015625)"/>
       <path id="DejaVuSans-64" d="M 2906 2969 
L 2906 4863 
L 3481 4863 
L 3481 0 
L 2906 0 
L 2906 525 
Q 2725 213 2448 61 
Q 2172 -91 1784 -91 
Q 1150 -91 751 415 
Q 353 922 353 1747 
Q 353 2572 751 3078 
Q 1150 3584 1784 3584 
Q 2172 3584 2448 3432 
Q 2725 3281 2906 2969 
z
M 947 1747 
Q 947 1113 1208 752 
Q 1469 391 1925 391 
Q 2381 391 2643 752 
Q 2906 1113 2906 1747 
Q 2906 2381 2643 2742 
Q 2381 3103 1925 3103 
Q 1469 3103 1208 2742 
Q 947 2381 947 1747 
z
" transform="scale(0.015625)"/>
       <path id="DejaVuSans-65" d="M 3597 1894 
L 3597 1613 
L 953 1613 
Q 991 1019 1311 708 
Q 1631 397 2203 397 
Q 2534 397 2845 478 
Q 3156 559 3463 722 
L 3463 178 
Q 3153 47 2828 -22 
Q 2503 -91 2169 -91 
Q 1331 -91 842 396 
Q 353 884 353 1716 
Q 353 2575 817 3079 
Q 1281 3584 2069 3584 
Q 2775 3584 3186 3129 
Q 3597 2675 3597 1894 
z
M 3022 2063 
Q 3016 2534 2758 2815 
Q 2500 3097 2075 3097 
Q 1594 3097 1305 2825 
Q 1016 2553 972 2059 
L 3022 2063 
z
" transform="scale(0.015625)"/>
       <path id="DejaVuSans-78" d="M 3513 3500 
L 2247 1797 
L 3578 0 
L 2900 0 
L 1881 1375 
L 863 0 
L 184 0 
L 1544 1831 
L 300 3500 
L 978 3500 
L 1906 2253 
L 2834 3500 
L 3513 3500 
z
" transform="scale(0.015625)"/>
      </defs>
      <use xlink:href="#DejaVuSans-49"/>
      <use xlink:href="#DejaVuSans-6e" x="29.492188"/>
      <use xlink:href="#DejaVuSans-64" x="92.871094"/>
      <use xlink:href="#DejaVuSans-65" x="156.347656"/>
      <use xlink:href="#DejaVuSans-78" x="216.121094"/>
     </g>
    </g>
   </g>
   <g id="matplotlib.axis_2">
    <g id="ytick_1">
     <g id="line2d_13">
      <path d="M 90 384.48 
L 648 384.48 
" clip-path="url(#pef12bb9a59)" style="fill: none; stroke: #b0b0b0; stroke-width: 0.8; stroke-linecap: square"/>
     </g>
     <g id="line2d_14">
      <defs>
       <path id="mb06928aa09" d="M 0 0 
L -3.5 0 
" style="stroke: #000000; stroke-width: 0.8"/>
      </defs>
      <g>
       <use xlink:href="#mb06928aa09" x="90" y="384.48" style="stroke: #000000; stroke-width: 0.8"/>
      </g>
     </g>
     <g id="text_8">
      <!-- 0.0000 -->
      <g transform="translate(48.009375 388.279219) scale(0.1 -0.1)">
       <defs>
        <path id="DejaVuSans-2e" d="M 684 794 
L 1344 794 
L 1344 0 
L 684 0 
L 684 794 
z
" transform="scale(0.015625)"/>
       </defs>
       <use xlink:href="#DejaVuSans-30"/>
       <use xlink:href="#DejaVuSans-2e" x="63.623047"/>
       <use xlink:href="#DejaVuSans-30" x="95.410156"/>
       <use xlink:href="#DejaVuSans-30" x="159.033203"/>
       <use xlink:href="#DejaVuSans-30" x="222.65625"/>
       <use xlink:href="#DejaVuSans-30" x="286.279297"/>
      </g>
     </g>
    </g>
    <g id="ytick_2">
     <g id="line2d_15">
      <path d="M 90 325.763451 
L 648 325.763451 
" clip-path="url(#pef12bb9a59)" style="fill: none; stroke: #b0b0b0; stroke-width: 0.8; stroke-linecap: square"/>
     </g>
     <g id="line2d_16">
      <g>
       <use xlink:href="#mb06928aa09" x="90" y="325.763451" style="stroke: #000000; stroke-width: 0.8"/>
      </g>
     </g>
     <g id="text_9">
      <!-- 0.0002 -->
      <g transform="translate(48.009375 329.56267) scale(0.1 -0.1)">
       <use xlink:href="#DejaVuSans-30"/>
       <use xlink:href="#DejaVuSans-2e" x="63.623047"/>
       <use xlink:href="#DejaVuSans-30" x="95.410156"/>
       <use xlink:href="#DejaVuSans-30" x="159.033203"/>
       <use xlink:href="#DejaVuSans-30" x="222.65625"/>
       <use xlink:href="#DejaVuSans-32" x="286.279297"/>
      </g>
     </g>
    </g>
    <g id="ytick_3">
     <g id="line2d_17">
      <path d="M 90 267.046902 
L 648 267.046902 
" clip-path="url(#pef12bb9a59)" style="fill: none; stroke: #b0b0b0; stroke-width: 0.8; stroke-linecap: square"/>
     </g>
     <g id="line2d_18">
      <g>
       <use xlink:href="#mb06928aa09" x="90" y="267.046902" style="stroke: #000000; stroke-width: 0.8"/>
      </g>
     </g>
     <g id="text_10">
      <!-- 0.0004 -->
      <g transform="translate(48.009375 270.84612) scale(0.1 -0.1)">
       <use xlink:href="#DejaVuSans-30"/>
       <use xlink:href="#DejaVuSans-2e" x="63.623047"/>
       <use xlink:href="#DejaVuSans-30" x="95.410156"/>
       <use xlink:href="#DejaVuSans-30" x="159.033203"/>
       <use xlink:href="#DejaVuSans-30" x="222.65625"/>
       <use xlink:href="#DejaVuSans-34" x="286.279297"/>
      </g>
     </g>
    </g>
    <g id="ytick_4">
     <g id="line2d_19">
      <path d="M 90 208.330353 
L 648 208.330353 
" clip-path="url(#pef12bb9a59)" style="fill: none; stroke: #b0b0b0; stroke-width: 0.8; stroke-linecap: square"/>
     </g>
     <g id="line2d_20">
      <g>
       <use xlink:href="#mb06928aa09" x="90" y="208.330353" style="stroke: #000000; stroke-width: 0.8"/>
      </g>
     </g>
     <g id="text_11">
      <!-- 0.0006 -->
      <g transform="translate(48.009375 212.129571) scale(0.1 -0.1)">
       <use xlink:href="#DejaVuSans-30"/>
       <use xlink:href="#DejaVuSans-2e" x="63.623047"/>
       <use xlink:href="#DejaVuSans-30" x="95.410156"/>
       <use xlink:href="#DejaVuSans-30" x="159.033203"/>
       <use xlink:href="#DejaVuSans-30" x="222.65625"/>
       <use xlink:href="#DejaVuSans-36" x="286.279297"/>
      </g>
     </g>
    </g>
    <g id="ytick_5">
     <g id="line2d_21">
      <path d="M 90 149.613803 
L 648 149.613803 
" clip-path="url(#pef12bb9a59)" style="fill: none; stroke: #b0b0b0; stroke-width: 0.8; stroke-linecap: square"/>
     </g>
     <g id="line2d_22">
      <g>
       <use xlink:href="#mb06928aa09" x="90" y="149.613803" style="stroke: #000000; stroke-width: 0.8"/>
      </g>
     </g>
     <g id="text_12">
      <!-- 0.0008 -->
      <g transform="translate(48.009375 153.413022) scale(0.1 -0.1)">
       <use xlink:href="#DejaVuSans-30"/>
       <use xlink:href="#DejaVuSans-2e" x="63.623047"/>
       <use xlink:href="#DejaVuSans-30" x="95.410156"/>
       <use xlink:href="#DejaVuSans-30" x="159.033203"/>
       <use xlink:href="#DejaVuSans-30" x="222.65625"/>
       <use xlink:href="#DejaVuSans-38" x="286.279297"/>
      </g>
     </g>
    </g>
    <g id="ytick_6">
     <g id="line2d_23">
      <path d="M 90 90.897254 
L 648 90.897254 
" clip-path="url(#pef12bb9a59)" style="fill: none; stroke: #b0b0b0; stroke-width: 0.8; stroke-linecap: square"/>
     </g>
     <g id="line2d_24">
      <g>
       <use xlink:href="#mb06928aa09" x="90" y="90.897254" style="stroke: #000000; stroke-width: 0.8"/>
      </g>
     </g>
     <g id="text_13">
      <!-- 0.0010 -->
      <g transform="translate(48.009375 94.696473) scale(0.1 -0.1)">
       <use xlink:href="#DejaVuSans-30"/>
       <use xlink:href="#DejaVuSans-2e" x="63.623047"/>
       <use xlink:href="#DejaVuSans-30" x="95.410156"/>
       <use xlink:href="#DejaVuSans-30" x="159.033203"/>
       <use xlink:href="#DejaVuSans-31" x="222.65625"/>
       <use xlink:href="#DejaVuSans-30" x="286.279297"/>
      </g>
     </g>
    </g>
    <g id="text_14">
     <!-- Importance_Score -->
     <g transform="translate(41.651562 263.315469) rotate(-90) scale(0.1 -0.1)">
      <defs>
       <path id="DejaVuSans-6d" d="M 3328 2828 
Q 3544 3216 3844 3400 
Q 4144 3584 4550 3584 
Q 5097 3584 5394 3201 
Q 5691 2819 5691 2113 
L 5691 0 
L 5113 0 
L 5113 2094 
Q 5113 2597 4934 2840 
Q 4756 3084 4391 3084 
Q 3944 3084 3684 2787 
Q 3425 2491 3425 1978 
L 3425 0 
L 2847 0 
L 2847 2094 
Q 2847 2600 2669 2842 
Q 2491 3084 2119 3084 
Q 1678 3084 1418 2786 
Q 1159 2488 1159 1978 
L 1159 0 
L 581 0 
L 581 3500 
L 1159 3500 
L 1159 2956 
Q 1356 3278 1631 3431 
Q 1906 3584 2284 3584 
Q 2666 3584 2933 3390 
Q 3200 3197 3328 2828 
z
" transform="scale(0.015625)"/>
       <path id="DejaVuSans-70" d="M 1159 525 
L 1159 -1331 
L 581 -1331 
L 581 3500 
L 1159 3500 
L 1159 2969 
Q 1341 3281 1617 3432 
Q 1894 3584 2278 3584 
Q 2916 3584 3314 3078 
Q 3713 2572 3713 1747 
Q 3713 922 3314 415 
Q 2916 -91 2278 -91 
Q 1894 -91 1617 61 
Q 1341 213 1159 525 
z
M 3116 1747 
Q 3116 2381 2855 2742 
Q 2594 3103 2138 3103 
Q 1681 3103 1420 2742 
Q 1159 2381 1159 1747 
Q 1159 1113 1420 752 
Q 1681 391 2138 391 
Q 2594 391 2855 752 
Q 3116 1113 3116 1747 
z
" transform="scale(0.015625)"/>
       <path id="DejaVuSans-6f" d="M 1959 3097 
Q 1497 3097 1228 2736 
Q 959 2375 959 1747 
Q 959 1119 1226 758 
Q 1494 397 1959 397 
Q 2419 397 2687 759 
Q 2956 1122 2956 1747 
Q 2956 2369 2687 2733 
Q 2419 3097 1959 3097 
z
M 1959 3584 
Q 2709 3584 3137 3096 
Q 3566 2609 3566 1747 
Q 3566 888 3137 398 
Q 2709 -91 1959 -91 
Q 1206 -91 779 398 
Q 353 888 353 1747 
Q 353 2609 779 3096 
Q 1206 3584 1959 3584 
z
" transform="scale(0.015625)"/>
       <path id="DejaVuSans-72" d="M 2631 2963 
Q 2534 3019 2420 3045 
Q 2306 3072 2169 3072 
Q 1681 3072 1420 2755 
Q 1159 2438 1159 1844 
L 1159 0 
L 581 0 
L 581 3500 
L 1159 3500 
L 1159 2956 
Q 1341 3275 1631 3429 
Q 1922 3584 2338 3584 
Q 2397 3584 2469 3576 
Q 2541 3569 2628 3553 
L 2631 2963 
z
" transform="scale(0.015625)"/>
       <path id="DejaVuSans-74" d="M 1172 4494 
L 1172 3500 
L 2356 3500 
L 2356 3053 
L 1172 3053 
L 1172 1153 
Q 1172 725 1289 603 
Q 1406 481 1766 481 
L 2356 481 
L 2356 0 
L 1766 0 
Q 1100 0 847 248 
Q 594 497 594 1153 
L 594 3053 
L 172 3053 
L 172 3500 
L 594 3500 
L 594 4494 
L 1172 4494 
z
" transform="scale(0.015625)"/>
       <path id="DejaVuSans-61" d="M 2194 1759 
Q 1497 1759 1228 1600 
Q 959 1441 959 1056 
Q 959 750 1161 570 
Q 1363 391 1709 391 
Q 2188 391 2477 730 
Q 2766 1069 2766 1631 
L 2766 1759 
L 2194 1759 
z
M 3341 1997 
L 3341 0 
L 2766 0 
L 2766 531 
Q 2569 213 2275 61 
Q 1981 -91 1556 -91 
Q 1019 -91 701 211 
Q 384 513 384 1019 
Q 384 1609 779 1909 
Q 1175 2209 1959 2209 
L 2766 2209 
L 2766 2266 
Q 2766 2663 2505 2880 
Q 2244 3097 1772 3097 
Q 1472 3097 1187 3025 
Q 903 2953 641 2809 
L 641 3341 
Q 956 3463 1253 3523 
Q 1550 3584 1831 3584 
Q 2591 3584 2966 3190 
Q 3341 2797 3341 1997 
z
" transform="scale(0.015625)"/>
       <path id="DejaVuSans-63" d="M 3122 3366 
L 3122 2828 
Q 2878 2963 2633 3030 
Q 2388 3097 2138 3097 
Q 1578 3097 1268 2742 
Q 959 2388 959 1747 
Q 959 1106 1268 751 
Q 1578 397 2138 397 
Q 2388 397 2633 464 
Q 2878 531 3122 666 
L 3122 134 
Q 2881 22 2623 -34 
Q 2366 -91 2075 -91 
Q 1284 -91 818 406 
Q 353 903 353 1747 
Q 353 2603 823 3093 
Q 1294 3584 2113 3584 
Q 2378 3584 2631 3529 
Q 2884 3475 3122 3366 
z
" transform="scale(0.015625)"/>
       <path id="DejaVuSans-5f" d="M 3263 -1063 
L 3263 -1509 
L -63 -1509 
L -63 -1063 
L 3263 -1063 
z
" transform="scale(0.015625)"/>
       <path id="DejaVuSans-53" d="M 3425 4513 
L 3425 3897 
Q 3066 4069 2747 4153 
Q 2428 4238 2131 4238 
Q 1616 4238 1336 4038 
Q 1056 3838 1056 3469 
Q 1056 3159 1242 3001 
Q 1428 2844 1947 2747 
L 2328 2669 
Q 3034 2534 3370 2195 
Q 3706 1856 3706 1288 
Q 3706 609 3251 259 
Q 2797 -91 1919 -91 
Q 1588 -91 1214 -16 
Q 841 59 441 206 
L 441 856 
Q 825 641 1194 531 
Q 1563 422 1919 422 
Q 2459 422 2753 634 
Q 3047 847 3047 1241 
Q 3047 1584 2836 1778 
Q 2625 1972 2144 2069 
L 1759 2144 
Q 1053 2284 737 2584 
Q 422 2884 422 3419 
Q 422 4038 858 4394 
Q 1294 4750 2059 4750 
Q 2388 4750 2728 4690 
Q 3069 4631 3425 4513 
z
" transform="scale(0.015625)"/>
      </defs>
      <use xlink:href="#DejaVuSans-49"/>
      <use xlink:href="#DejaVuSans-6d" x="29.492188"/>
      <use xlink:href="#DejaVuSans-70" x="126.904297"/>
      <use xlink:href="#DejaVuSans-6f" x="190.380859"/>
      <use xlink:href="#DejaVuSans-72" x="251.5625"/>
      <use xlink:href="#DejaVuSans-74" x="292.675781"/>
      <use xlink:href="#DejaVuSans-61" x="331.884766"/>
      <use xlink:href="#DejaVuSans-6e" x="393.164062"/>
      <use xlink:href="#DejaVuSans-63" x="456.542969"/>
      <use xlink:href="#DejaVuSans-65" x="511.523438"/>
      <use xlink:href="#DejaVuSans-5f" x="573.046875"/>
      <use xlink:href="#DejaVuSans-53" x="623.046875"/>
      <use xlink:href="#DejaVuSans-63" x="686.523438"/>
      <use xlink:href="#DejaVuSans-6f" x="741.503906"/>
      <use xlink:href="#DejaVuSans-72" x="802.685547"/>
      <use xlink:href="#DejaVuSans-65" x="841.548828"/>
     </g>
    </g>
   </g>
   <g id="patch_104">
    <path d="M 90 384.48 
L 90 51.84 
" style="fill: none; stroke: #000000; stroke-width: 0.8; stroke-linejoin: miter; stroke-linecap: square"/>
   </g>
   <g id="patch_105">
    <path d="M 648 384.48 
L 648 51.84 
" style="fill: none; stroke: #000000; stroke-width: 0.8; stroke-linejoin: miter; stroke-linecap: square"/>
   </g>
   <g id="patch_106">
    <path d="M 90 384.48 
L 648 384.48 
" style="fill: none; stroke: #000000; stroke-width: 0.8; stroke-linejoin: miter; stroke-linecap: square"/>
   </g>
   <g id="patch_107">
    <path d="M 90 51.84 
L 648 51.84 
" style="fill: none; stroke: #000000; stroke-width: 0.8; stroke-linejoin: miter; stroke-linecap: square"/>
   </g>
   <g id="text_15">
    <!-- Importance_Score -->
    <g transform="translate(314.813438 45.84) scale(0.12 -0.12)">
     <use xlink:href="#DejaVuSans-49"/>
     <use xlink:href="#DejaVuSans-6d" x="29.492188"/>
     <use xlink:href="#DejaVuSans-70" x="126.904297"/>
     <use xlink:href="#DejaVuSans-6f" x="190.380859"/>
     <use xlink:href="#DejaVuSans-72" x="251.5625"/>
     <use xlink:href="#DejaVuSans-74" x="292.675781"/>
     <use xlink:href="#DejaVuSans-61" x="331.884766"/>
     <use xlink:href="#DejaVuSans-6e" x="393.164062"/>
     <use xlink:href="#DejaVuSans-63" x="456.542969"/>
     <use xlink:href="#DejaVuSans-65" x="511.523438"/>
     <use xlink:href="#DejaVuSans-5f" x="573.046875"/>
     <use xlink:href="#DejaVuSans-53" x="623.046875"/>
     <use xlink:href="#DejaVuSans-63" x="686.523438"/>
     <use xlink:href="#DejaVuSans-6f" x="741.503906"/>
     <use xlink:href="#DejaVuSans-72" x="802.685547"/>
     <use xlink:href="#DejaVuSans-65" x="841.548828"/>
    </g>
   </g>
  </g>
 </g>
 <defs>
  <clipPath id="pef12bb9a59">
   <rect x="90" y="51.84" width="558" height="332.64"/>
  </clipPath>
 </defs>
</svg>
